<svg xmlns="http://www.w3.org/2000/svg" xmlns:xlink="http://www.w3.org/1999/xlink" width="870" zoomAndPan="magnify" viewBox="0 0 652.5 225" height="300" preserveAspectRatio="xMidYMid meet" version="1.0"><defs><g/></defs><g fill="#ee3853" fill-opacity="1"><g transform="translate(30.605349, 134.353155)"><g><path d="M 19.023438 0 L 57.070312 0 C 68.042969 -0.144531 76.09375 -6.878906 76.09375 -16.097656 L 76.09375 -19.023438 L 57.070312 -19.023438 L 57.070312 -16.097656 C 57.070312 -14.414062 55.753906 -13.171875 54.070312 -13.171875 L 22.023438 -13.171875 C 20.339844 -13.171875 19.023438 -14.414062 19.023438 -16.097656 L 19.023438 -35.121094 C 19.023438 -36.800781 20.339844 -38.046875 22.023438 -38.046875 L 54.070312 -38.046875 C 55.753906 -38.046875 57.070312 -36.800781 57.070312 -35.121094 L 57.070312 -32.191406 L 76.09375 -32.191406 L 76.09375 -35.121094 C 76.09375 -44.339844 68.042969 -51.070312 57.070312 -51.214844 L 19.023438 -51.214844 C 8.046875 -51.070312 0 -44.339844 0 -35.121094 L 0 -16.097656 C 0 -6.878906 8.046875 -0.144531 19.023438 0 Z M 19.023438 0 "/></g></g></g><g fill="#ee3853" fill-opacity="1"><g transform="translate(114.010827, 134.353155)"><g><path d="M 0 0 L 67.3125 0 L 67.3125 -13.171875 L 43.167969 -13.171875 L 43.167969 -38.046875 L 67.3125 -38.046875 L 67.3125 -51.214844 L 0 -51.214844 L 0 -38.046875 L 24.144531 -38.046875 L 24.144531 -13.171875 L 0 -13.171875 Z M 0 0 "/></g></g></g><g fill="#ee3853" fill-opacity="1"><g transform="translate(188.636776, 134.353155)"><g><path d="M 19.023438 0 L 57.070312 0 C 68.042969 -0.144531 76.09375 -6.878906 76.09375 -16.097656 L 76.09375 -35.121094 C 76.09375 -44.339844 68.042969 -51.070312 57.070312 -51.214844 L 19.023438 -51.214844 C 8.046875 -51.070312 0 -44.339844 0 -35.121094 L 0 -16.097656 C 0 -6.878906 8.046875 -0.144531 19.023438 0 Z M 22.023438 -13.171875 C 20.339844 -13.171875 19.023438 -14.414062 19.023438 -16.097656 L 19.023438 -35.121094 C 19.023438 -36.800781 20.339844 -38.046875 22.023438 -38.046875 L 54.070312 -38.046875 C 55.753906 -38.046875 57.070312 -36.800781 57.070312 -35.121094 L 57.070312 -16.097656 C 57.070312 -14.414062 55.753906 -13.171875 54.070312 -13.171875 Z M 22.023438 -13.171875 "/></g></g></g><g fill="#0e2f56" fill-opacity="1"><g transform="translate(272.049234, 134.353155)"><g><path d="M 0 0 L 56.703125 0 C 67.898438 0 76.09375 -6.804688 76.09375 -16.097656 C 76.09375 -25.390625 67.898438 -32.191406 56.703125 -32.191406 L 22.023438 -32.191406 C 20.339844 -32.191406 19.023438 -33.4375 19.023438 -35.121094 C 19.023438 -36.800781 20.339844 -38.046875 22.023438 -38.046875 L 76.09375 -38.046875 L 76.09375 -51.214844 L 19.390625 -51.214844 C 8.195312 -51.214844 0 -44.410156 0 -35.121094 C 0 -25.828125 8.195312 -19.023438 19.390625 -19.023438 L 54.070312 -19.023438 C 55.753906 -19.023438 57.070312 -17.78125 57.070312 -16.097656 C 57.070312 -14.414062 55.753906 -13.171875 54.070312 -13.171875 L 0 -13.171875 Z M 0 0 "/></g></g></g><g fill="#0e2f56" fill-opacity="1"><g transform="translate(355.454713, 134.353155)"><g><path d="M 0 0 L 67.3125 0 L 67.3125 -13.171875 L 43.167969 -13.171875 L 43.167969 -38.046875 L 67.3125 -38.046875 L 67.3125 -51.214844 L 0 -51.214844 L 0 -38.046875 L 24.144531 -38.046875 L 24.144531 -13.171875 L 0 -13.171875 Z M 0 0 "/></g></g></g><g fill="#0e2f56" fill-opacity="1"><g transform="translate(430.080661, 134.353155)"><g><path d="M 19.023438 -19.167969 L 76.09375 -19.167969 L 76.09375 -32.339844 L 19.023438 -32.339844 Z M 19.023438 -38.191406 L 76.09375 -38.191406 L 76.09375 -51.363281 L 19.023438 -51.363281 Z M 76.09375 -51.363281 L 19.023438 -51.363281 C 8.046875 -51.363281 0 -44.484375 0 -35.265625 L 0 -15.878906 L 19.023438 -15.878906 L 19.023438 -35.265625 C 19.023438 -36.949219 20.339844 -38.191406 22.023438 -38.191406 L 76.09375 -38.191406 Z M 76.09375 -0.144531 L 76.09375 -13.316406 L 22.023438 -13.316406 C 20.339844 -13.316406 19.023438 -14.558594 19.023438 -16.242188 L 19.023438 -51.363281 L 0 -35.265625 L 0 -16.242188 C 0 -7.023438 8.046875 -0.144531 19.023438 -0.144531 Z M 76.09375 -0.144531 "/></g></g></g><g fill="#0e2f56" fill-opacity="1"><g transform="translate(513.48614, 134.353155)"><g><path d="M 40.898438 -51.214844 L 19.023438 -51.214844 C 8.046875 -51.214844 0 -44.339844 0 -35.121094 L 0 0 L 19.023438 0 L 19.023438 -35.121094 C 19.023438 -36.800781 20.339844 -38.046875 22.023438 -38.046875 L 37.898438 -38.046875 C 39.582031 -38.046875 40.898438 -36.800781 40.898438 -35.121094 L 40.898438 0 L 59.921875 0 L 59.921875 -35.121094 C 59.921875 -44.339844 51.875 -51.214844 40.898438 -51.214844 Z M 81.800781 -51.214844 L 59.921875 -51.214844 C 48.949219 -51.214844 40.898438 -44.339844 40.898438 -35.121094 L 40.898438 0 L 59.921875 0 L 59.921875 -35.121094 C 59.921875 -36.800781 61.242188 -38.046875 62.921875 -38.046875 L 78.800781 -38.046875 C 80.484375 -38.046875 81.800781 -36.800781 81.800781 -35.121094 L 81.800781 0 L 100.824219 0 L 100.824219 -35.121094 C 100.824219 -44.339844 92.773438 -51.214844 81.800781 -51.214844 Z M 81.800781 -51.214844 "/></g></g></g></svg>
